<svg width="25" height="25" viewBox="0 0 25 25" fill="none" xmlns="http://www.w3.org/2000/svg">
<path d="M10.1354 11.1782H7.47873C6.84714 11.1782 6.33588 11.6895 6.33588 12.321V17.4539H10.1354V11.1782V11.1782Z" stroke="#3B424A" stroke-width="1.5" stroke-miterlimit="10" stroke-linecap="round" stroke-linejoin="round"/>
<path d="M12.7933 6.6167H11.2695C10.6379 6.6167 10.1266 7.128 10.1266 7.75958V17.4439H13.9262V7.75958C13.9262 7.128 13.4249 6.6167 12.7933 6.6167Z" stroke="#3B424A" stroke-width="1.5" stroke-miterlimit="10" stroke-linecap="round" stroke-linejoin="round"/>
<path d="M16.5897 12.8823H13.933V17.4438H17.7326V14.0252C17.7226 13.3936 17.2113 12.8823 16.5897 12.8823Z" stroke="#3B424A" stroke-width="1.5" stroke-miterlimit="10" stroke-linecap="round" stroke-linejoin="round"/>
<path d="M9.02261 22.0552H15.0377C20.0503 22.0552 22.0553 20.0502 22.0553 15.0376V9.02249C22.0553 4.00991 20.0503 2.00488 15.0377 2.00488H9.02261C4.01004 2.00488 2.005 4.00991 2.005 9.02249V15.0376C2.005 20.0502 4.01004 22.0552 9.02261 22.0552Z" stroke="#3B424A" stroke-width="1.5" stroke-linecap="round" stroke-linejoin="round"/>
</svg>
