<svg width="73" height="73" viewBox="0 0 73 73" fill="none" xmlns="http://www.w3.org/2000/svg">
<g filter="url(#filter0_d_3_7417)">
<rect x="8.99768" y="6.99768" width="52" height="52" rx="9" fill="white" shape-rendering="crispEdges"/>
<mask id="path-3-inside-1_3_7417" fill="white">
<path d="M27.4977 30.2477H42.4977V31.7477H27.4977V30.2477ZM30.8727 34.9977H39.1227V36.4977H30.8727V34.9977ZM33.1227 39.7477H36.8727V41.2477H33.1227V39.7477ZM25.2477 25.4977H44.7477V26.9977H25.2477V25.4977Z"/>
</mask>
<path d="M27.4977 30.2477H42.4977V31.7477H27.4977V30.2477ZM30.8727 34.9977H39.1227V36.4977H30.8727V34.9977ZM33.1227 39.7477H36.8727V41.2477H33.1227V39.7477ZM25.2477 25.4977H44.7477V26.9977H25.2477V25.4977Z" fill="#E4A951"/>
<path d="M27.4977 30.2477V28.2477H25.4977V30.2477H27.4977ZM42.4977 30.2477H44.4977V28.2477H42.4977V30.2477ZM42.4977 31.7477V33.7477H44.4977V31.7477H42.4977ZM27.4977 31.7477H25.4977V33.7477H27.4977V31.7477ZM30.8727 34.9977V32.9977H28.8727V34.9977H30.8727ZM39.1227 34.9977H41.1227V32.9977H39.1227V34.9977ZM39.1227 36.4977V38.4977H41.1227V36.4977H39.1227ZM30.8727 36.4977H28.8727V38.4977H30.8727V36.4977ZM33.1227 39.7477V37.7477H31.1227V39.7477H33.1227ZM36.8727 39.7477H38.8727V37.7477H36.8727V39.7477ZM36.8727 41.2477V43.2477H38.8727V41.2477H36.8727ZM33.1227 41.2477H31.1227V43.2477H33.1227V41.2477ZM25.2477 25.4977V23.4977H23.2477V25.4977H25.2477ZM44.7477 25.4977H46.7477V23.4977H44.7477V25.4977ZM44.7477 26.9977V28.9977H46.7477V26.9977H44.7477ZM25.2477 26.9977H23.2477V28.9977H25.2477V26.9977ZM27.4977 32.2477H42.4977V28.2477H27.4977V32.2477ZM40.4977 30.2477V31.7477H44.4977V30.2477H40.4977ZM42.4977 29.7477H27.4977V33.7477H42.4977V29.7477ZM29.4977 31.7477V30.2477H25.4977V31.7477H29.4977ZM30.8727 36.9977H39.1227V32.9977H30.8727V36.9977ZM37.1227 34.9977V36.4977H41.1227V34.9977H37.1227ZM39.1227 34.4977H30.8727V38.4977H39.1227V34.4977ZM32.8727 36.4977V34.9977H28.8727V36.4977H32.8727ZM33.1227 41.7477H36.8727V37.7477H33.1227V41.7477ZM34.8727 39.7477V41.2477H38.8727V39.7477H34.8727ZM36.8727 39.2477H33.1227V43.2477H36.8727V39.2477ZM35.1227 41.2477V39.7477H31.1227V41.2477H35.1227ZM25.2477 27.4977H44.7477V23.4977H25.2477V27.4977ZM42.7477 25.4977V26.9977H46.7477V25.4977H42.7477ZM44.7477 24.9977H25.2477V28.9977H44.7477V24.9977ZM27.2477 26.9977V25.4977H23.2477V26.9977H27.2477Z" fill="#64748B" mask="url(#path-3-inside-1_3_7417)"/>
<rect x="9.49768" y="7.49768" width="51" height="51" rx="8.5" stroke="#E2E8F0" shape-rendering="crispEdges"/>
</g>
<defs>
<filter id="filter0_d_3_7417" x="0.997681" y="0.997681" width="72" height="72" filterUnits="userSpaceOnUse" color-interpolation-filters="sRGB">
<feFlood flood-opacity="0" result="BackgroundImageFix"/>
<feColorMatrix in="SourceAlpha" type="matrix" values="0 0 0 0 0 0 0 0 0 0 0 0 0 0 0 0 0 0 127 0" result="hardAlpha"/>
<feOffset dx="2" dy="4"/>
<feGaussianBlur stdDeviation="5"/>
<feComposite in2="hardAlpha" operator="out"/>
<feColorMatrix type="matrix" values="0 0 0 0 0.705882 0 0 0 0 0.74902 0 0 0 0 0.803922 0 0 0 0.2 0"/>
<feBlend mode="normal" in2="BackgroundImageFix" result="effect1_dropShadow_3_7417"/>
<feBlend mode="normal" in="SourceGraphic" in2="effect1_dropShadow_3_7417" result="shape"/>
</filter>
</defs>
</svg>
