<svg width="25" height="25" viewBox="0 0 25 25" fill="none" xmlns="http://www.w3.org/2000/svg">
<path d="M18.0854 13.5856C17.6643 13.9966 17.4237 14.5881 17.4839 15.2197C17.5741 16.3024 18.5666 17.0944 19.6493 17.0944H21.5541V18.2874C21.5541 20.3626 19.8598 22.0568 17.7846 22.0568H6.27574C4.20054 22.0568 2.50629 20.3626 2.50629 18.2874V11.5405C2.50629 9.46526 4.20054 7.771 6.27574 7.771H17.7846C19.8598 7.771 21.5541 9.46526 21.5541 11.5405V12.9841H19.529C18.9676 12.9841 18.4563 13.2046 18.0854 13.5856Z" stroke="#3B424A" stroke-width="1.5" stroke-linecap="round" stroke-linejoin="round"/>
<path d="M2.50629 12.4427V7.86127C2.50629 6.66828 3.23812 5.60557 4.35091 5.18451L12.3109 2.17696C13.554 1.70578 14.8873 2.62813 14.8873 3.96147V7.77102" stroke="#3B424A" stroke-width="1.5" stroke-linecap="round" stroke-linejoin="round"/>
<path d="M22.6155 14.0069V16.0721C22.6155 16.6235 22.1744 17.0746 21.613 17.0947H19.6481C18.5654 17.0947 17.5729 16.3027 17.4827 15.22C17.4225 14.5884 17.6631 13.9969 18.0842 13.5859C18.4551 13.2049 18.9664 12.9844 19.5278 12.9844H21.613C22.1744 13.0044 22.6155 13.4555 22.6155 14.0069Z" stroke="#3B424A" stroke-width="1.5" stroke-linecap="round" stroke-linejoin="round"/>
<path d="M7.01758 12.0317H14.0352" stroke="#3B424A" stroke-width="1.5" stroke-linecap="round" stroke-linejoin="round"/>
</svg>
