<svg width="25" height="24" viewBox="0 0 25 24" fill="none" xmlns="http://www.w3.org/2000/svg">
<circle cx="12.7488" cy="11.75" r="10.75" fill="#64748B"/>
<path d="M12.9988 13.5C12.5888 13.5 12.2488 13.16 12.2488 12.75V7.75C12.2488 7.34 12.5888 7 12.9988 7C13.4088 7 13.7488 7.34 13.7488 7.75V12.75C13.7488 13.16 13.4088 13.5 12.9988 13.5Z" fill="white"/>
<path d="M12.9988 16.75C12.8688 16.75 12.7388 16.72 12.6188 16.67C12.4988 16.62 12.3888 16.55 12.2888 16.46C12.1988 16.36 12.1288 16.26 12.0788 16.13C12.0288 16.01 11.9988 15.88 11.9988 15.75C11.9988 15.62 12.0288 15.49 12.0788 15.37C12.1288 15.25 12.1988 15.14 12.2888 15.04C12.3888 14.95 12.4988 14.88 12.6188 14.83C12.8588 14.73 13.1388 14.73 13.3788 14.83C13.4988 14.88 13.6088 14.95 13.7088 15.04C13.7988 15.14 13.8688 15.25 13.9188 15.37C13.9688 15.49 13.9988 15.62 13.9988 15.75C13.9988 15.88 13.9688 16.01 13.9188 16.13C13.8688 16.26 13.7988 16.36 13.7088 16.46C13.6088 16.55 13.4988 16.62 13.3788 16.67C13.2588 16.72 13.1288 16.75 12.9988 16.75Z" fill="white"/>
</svg>
