<svg width="153" height="40" viewBox="0 0 153 40" fill="none" xmlns="http://www.w3.org/2000/svg">
<g filter="url(#filter0_d_3_8512)">
<path d="M18.0026 15H32.0026C32.0026 22.6845 25.687 29 18.0026 29C10.3181 29 4.00256 22.6845 4.00256 15C4.00256 7.31556 10.3181 1 18.0026 1C21.7203 1 25.2826 2.47776 27.8959 5.10665L18.0026 15Z" fill="url(#paint0_linear_3_8512)"/>
</g>
<path d="M44.2038 26H39.4038V3.6H48.6198C49.7931 3.6 50.8705 3.71733 51.8518 3.952C52.8545 4.18666 53.7931 4.57066 54.6678 5.104C55.5638 5.63733 56.2571 6.39466 56.7478 7.376C57.2598 8.35733 57.5158 9.53066 57.5158 10.896C57.5158 14.288 55.8838 16.5067 52.6198 17.552L59.3078 26H53.7718L47.7238 18.16H44.2038V26ZM44.2038 7.824V14.16H48.8438C49.9318 14.16 50.8278 13.904 51.5318 13.392C52.2571 12.8587 52.6198 12.0587 52.6198 10.992C52.6198 9.904 52.2678 9.104 51.5638 8.592C50.8598 8.08 49.9531 7.824 48.8438 7.824H44.2038ZM61.9975 3.6H77.7735V7.824H66.7975V12.592H76.8135V16.784H66.7975V21.776H77.9655V26H61.9975V3.6ZM92.635 3.6H97.051V26H93.147V23.76C91.8457 25.552 89.9897 26.448 87.579 26.448C85.2537 26.448 83.419 25.6587 82.075 24.08C80.731 22.48 80.059 20.56 80.059 18.32C80.059 16.08 80.731 14.1707 82.075 12.592C83.419 10.992 85.2537 10.192 87.579 10.192C89.691 10.192 91.3764 10.8853 92.635 12.272V3.6ZM92.635 16.496C92.315 15.7707 91.7924 15.1627 91.067 14.672C90.363 14.1813 89.5524 13.936 88.635 13.936C87.3977 13.936 86.4164 14.3627 85.691 15.216C84.9657 16.048 84.603 17.0827 84.603 18.32C84.603 19.5573 84.9657 20.6027 85.691 21.456C86.4164 22.288 87.3977 22.704 88.635 22.704C89.5524 22.704 90.363 22.4587 91.067 21.968C91.7924 21.4773 92.315 20.8693 92.635 20.144V16.496ZM111.485 10.64H115.933V26H111.997V24.048C110.611 25.648 108.904 26.448 106.877 26.448C104.872 26.448 103.325 25.8613 102.237 24.688C101.171 23.5147 100.637 22 100.637 20.144V10.64H105.085V19.568C105.085 20.5707 105.341 21.328 105.853 21.84C106.365 22.352 107.091 22.608 108.029 22.608C109.395 22.608 110.547 21.9573 111.485 20.656V10.64ZM118.84 18.544C118.84 17.136 119.086 15.8773 119.576 14.768C120.088 13.6587 120.76 12.784 121.592 12.144C122.424 11.4827 123.342 10.992 124.344 10.672C125.347 10.3307 126.403 10.16 127.512 10.16C129.283 10.16 130.862 10.5333 132.248 11.28V15.184C131.054 14.416 129.688 14.032 128.152 14.032C126.808 14.032 125.678 14.384 124.76 15.088C123.843 15.792 123.384 16.8693 123.384 18.32C123.384 19.7067 123.843 20.7733 124.76 21.52C125.678 22.2453 126.787 22.608 128.088 22.608C129.731 22.608 131.171 22.2347 132.408 21.488V25.424C130.808 26.1067 129.08 26.448 127.224 26.448C124.92 26.448 122.947 25.776 121.304 24.432C119.662 23.0667 118.84 21.104 118.84 18.544ZM134.528 18.32C134.528 16.9333 134.773 15.7067 135.264 14.64C135.754 13.552 136.394 12.6987 137.184 12.08C137.994 11.4613 138.837 10.992 139.712 10.672C140.608 10.352 141.514 10.192 142.432 10.192C143.968 10.192 145.29 10.48 146.4 11.056C147.53 11.632 148.362 12.3787 148.896 13.296C149.429 14.192 149.792 15.216 149.984 16.368C150.197 17.4987 150.144 18.6293 149.824 19.76H139.008C139.242 20.8267 139.861 21.6267 140.864 22.16C141.866 22.672 143.05 22.928 144.416 22.928C146.101 22.928 147.648 22.6187 149.056 22V25.488C147.541 26.128 145.664 26.448 143.424 26.448C140.864 26.448 138.741 25.7333 137.056 24.304C135.37 22.8747 134.528 20.88 134.528 18.32ZM145.824 16.88C145.93 16.176 145.728 15.4507 145.216 14.704C144.704 13.9573 143.829 13.584 142.592 13.584C141.61 13.584 140.768 13.8827 140.064 14.48C139.36 15.056 138.997 15.856 138.976 16.88H145.824Z" fill="#172D43"/>
<defs>
<filter id="filter0_d_3_8512" x="0.00256276" y="-4.76837e-07" width="40" height="40" filterUnits="userSpaceOnUse" color-interpolation-filters="sRGB">
<feFlood flood-opacity="0" result="BackgroundImageFix"/>
<feColorMatrix in="SourceAlpha" type="matrix" values="0 0 0 0 0 0 0 0 0 0 0 0 0 0 0 0 0 0 127 0" result="hardAlpha"/>
<feOffset dx="2" dy="5"/>
<feGaussianBlur stdDeviation="3"/>
<feComposite in2="hardAlpha" operator="out"/>
<feColorMatrix type="matrix" values="0 0 0 0 0.364706 0 0 0 0 0.372549 0 0 0 0 0.937255 0 0 0 0.2 0"/>
<feBlend mode="normal" in2="BackgroundImageFix" result="effect1_dropShadow_3_8512"/>
<feBlend mode="normal" in="SourceGraphic" in2="effect1_dropShadow_3_8512" result="shape"/>
</filter>
<linearGradient id="paint0_linear_3_8512" x1="47.0026" y1="7" x2="-76.9974" y2="74" gradientUnits="userSpaceOnUse">
<stop stop-color="#5D5FEF"/>
<stop offset="1" stop-color="#0003FF"/>
</linearGradient>
</defs>
</svg>
