<svg width="25" height="25" viewBox="0 0 25 25" fill="none" xmlns="http://www.w3.org/2000/svg">
<path d="M18.5164 16.8732L18.9074 20.0411C19.0077 20.8732 18.1154 21.4546 17.4036 21.0235L13.2031 18.5273C12.7419 18.5273 12.2908 18.4972 11.8497 18.4371C12.5916 17.5649 13.0327 16.4621 13.0327 15.2691C13.0327 12.422 10.5665 10.1162 7.51884 10.1162C6.35593 10.1162 5.28324 10.447 4.391 11.0285C4.36092 10.7779 4.35089 10.5272 4.35089 10.2666C4.35089 5.70513 8.31083 2.00586 13.2031 2.00586C18.0954 2.00586 22.0553 5.70513 22.0553 10.2666C22.0553 12.9734 20.6618 15.3694 18.5164 16.8732Z" stroke="#3B424A" stroke-width="1.5" stroke-linecap="round" stroke-linejoin="round"/>
<path d="M13.0327 15.2691C13.0327 16.4621 12.5916 17.5649 11.8497 18.4371C10.8572 19.6401 9.28327 20.412 7.51884 20.412L4.90227 21.9659C4.46117 22.2366 3.89976 21.8656 3.95991 21.3544L4.21054 19.3794C2.86716 18.4471 2.005 16.9533 2.005 15.2691C2.005 13.5047 2.94737 11.9508 4.391 11.0285C5.28323 10.447 6.35592 10.1162 7.51884 10.1162C10.5665 10.1162 13.0327 12.4219 13.0327 15.2691Z" stroke="#3B424A" stroke-width="1.5" stroke-linecap="round" stroke-linejoin="round"/>
</svg>
