<svg width="43" height="25" viewBox="0 0 43 25" fill="none" xmlns="http://www.w3.org/2000/svg">
<rect y="0.03125" width="43" height="24" rx="12" fill="#5D5FEF"/>
<path d="M11.9922 15.321V8.59943H13.3295V15.321H11.9922ZM9.30256 12.6264V11.294H16.0241V12.6264H9.30256ZM22.1666 6.84943V17.0312H20.6254V8.39062H20.5657L18.1296 9.98153V8.50994L20.6701 6.84943H22.1666ZM28.4755 17.1705C28.0214 17.1638 27.574 17.081 27.1332 16.9219C26.6957 16.7628 26.2979 16.4976 25.94 16.1264C25.582 15.7552 25.2953 15.2564 25.0799 14.63C24.8678 14.0036 24.7617 13.2214 24.7617 12.2834C24.7617 11.3951 24.8496 10.6063 25.0252 9.9169C25.2042 9.22751 25.4611 8.64583 25.7958 8.17187C26.1306 7.6946 26.5349 7.33167 27.0089 7.08309C27.4828 6.83451 28.0148 6.71022 28.6048 6.71022C29.2113 6.71022 29.7499 6.82954 30.2205 7.06818C30.6912 7.30682 31.0723 7.6366 31.364 8.05753C31.659 8.47845 31.8462 8.95738 31.9258 9.49432H30.4095C30.3067 9.07007 30.1029 8.72372 29.7979 8.45525C29.493 8.18679 29.0953 8.05255 28.6048 8.05255C27.859 8.05255 27.2773 8.37737 26.8597 9.02699C26.4454 9.67661 26.2366 10.5798 26.2333 11.7365H26.3079C26.4836 11.4482 26.699 11.2029 26.9542 11.0007C27.2127 10.7952 27.5011 10.6378 27.8193 10.5284C28.1407 10.4157 28.4788 10.3594 28.8335 10.3594C29.4234 10.3594 29.957 10.5035 30.4343 10.7919C30.9149 11.0769 31.2977 11.4714 31.5827 11.9751C31.8678 12.4789 32.0103 13.0556 32.0103 13.7053C32.0103 14.3549 31.8628 14.9432 31.5678 15.4702C31.2762 15.9972 30.8652 16.4148 30.3349 16.723C29.8046 17.0279 29.1848 17.1771 28.4755 17.1705ZM28.4705 15.8778C28.8616 15.8778 29.2113 15.7817 29.5195 15.5895C29.8278 15.3973 30.0714 15.1387 30.2504 14.8139C30.4293 14.4891 30.5188 14.1262 30.5188 13.7251C30.5188 13.334 30.431 12.9777 30.2553 12.6562C30.083 12.3348 29.8443 12.0795 29.5394 11.8906C29.2378 11.7017 28.8931 11.6072 28.5053 11.6072C28.2104 11.6072 27.9369 11.6636 27.685 11.7763C27.4364 11.889 27.2177 12.0447 27.0288 12.2436C26.8398 12.4425 26.6907 12.6712 26.5813 12.9297C26.4753 13.1849 26.4222 13.455 26.4222 13.7401C26.4222 14.1212 26.5101 14.4742 26.6857 14.799C26.8647 15.1238 27.1083 15.3857 27.4166 15.5845C27.7281 15.7801 28.0794 15.8778 28.4705 15.8778Z" fill="white"/>
</svg>
