<svg width="49" height="24" viewBox="0 0 49 24" fill="none" xmlns="http://www.w3.org/2000/svg">
<g opacity="0.8">
<rect y="0.530273" width="49" height="23" rx="11.5" fill="#10B981"/>
<path d="M12.4858 11.9962V16.5303H10.9993V8.89391H12.4261V10.1368H12.5206C12.6963 9.73245 12.9714 9.40764 13.3459 9.16237C13.7237 8.91711 14.1993 8.79448 14.7727 8.79448C15.2931 8.79448 15.7488 8.90385 16.1399 9.1226C16.531 9.33804 16.8343 9.65953 17.0497 10.0871C17.2652 10.5146 17.3729 11.0433 17.3729 11.673V16.5303H15.8864V11.852C15.8864 11.2985 15.7422 10.866 15.4538 10.5544C15.1655 10.2396 14.7694 10.0821 14.2656 10.0821C13.9209 10.0821 13.6143 10.1567 13.3459 10.3058C13.0807 10.455 12.8703 10.6737 12.7145 10.9621C12.562 11.2471 12.4858 11.5918 12.4858 11.9962ZM22.6577 16.6844C21.9053 16.6844 21.2573 16.5236 20.7138 16.2021C20.1735 15.8773 19.7559 15.4216 19.4609 14.835C19.1693 14.245 19.0234 13.5539 19.0234 12.7618C19.0234 11.9796 19.1693 11.2902 19.4609 10.6936C19.7559 10.097 20.1669 9.63136 20.6939 9.29661C21.2242 8.96185 21.844 8.79448 22.5533 8.79448C22.9841 8.79448 23.4018 8.86574 23.8061 9.00825C24.2105 9.15077 24.5734 9.3745 24.8949 9.67942C25.2164 9.98434 25.4699 10.3804 25.6555 10.8676C25.8411 11.3515 25.934 11.9398 25.934 12.6325V13.1595H19.8636V12.0459H24.4773C24.4773 11.6548 24.3977 11.3084 24.2386 11.0068C24.0795 10.7019 23.8558 10.4616 23.5675 10.286C23.2824 10.1103 22.9477 10.0225 22.5632 10.0225C22.1456 10.0225 21.781 10.1252 21.4695 10.3307C21.1612 10.5329 20.9226 10.798 20.7536 11.1262C20.5878 11.451 20.505 11.8039 20.505 12.1851V13.0551C20.505 13.5655 20.5945 13.9997 20.7734 14.3577C20.9557 14.7156 21.2093 14.9891 21.5341 15.178C21.8589 15.3636 22.2384 15.4564 22.6726 15.4564C22.9543 15.4564 23.2112 15.4166 23.4432 15.3371C23.6752 15.2542 23.8757 15.1316 24.0447 14.9692C24.2138 14.8068 24.343 14.6063 24.4325 14.3676L25.8395 14.6212C25.7268 15.0355 25.5246 15.3984 25.233 15.71C24.9446 16.0182 24.5817 16.2585 24.1442 16.4308C23.71 16.5999 23.2145 16.6844 22.6577 16.6844ZM29.2251 16.5303L26.978 8.89391H28.5142L30.0107 14.5019H30.0852L31.5867 8.89391H33.1229L34.6144 14.477H34.6889L36.1754 8.89391H37.7117L35.4695 16.5303H33.9531L32.402 11.0168H32.2876L30.7365 16.5303H29.2251Z" fill="white"/>
</g>
</svg>
