<svg width="25" height="24" viewBox="0 0 25 24" fill="none" xmlns="http://www.w3.org/2000/svg">
<path d="M20.3388 14.49L19.3388 12.83C19.1288 12.46 18.9388 11.76 18.9388 11.35V8.82C18.9388 6.47 17.5588 4.44 15.5688 3.49C15.0488 2.57 14.0888 2 12.9888 2C11.8988 2 10.9188 2.59 10.3988 3.52C8.44878 4.49 7.09878 6.5 7.09878 8.82V11.35C7.09878 11.76 6.90878 12.46 6.69878 12.82L5.68878 14.49C5.28878 15.16 5.19878 15.9 5.44878 16.58C5.68878 17.25 6.25878 17.77 6.99878 18.02C8.93878 18.68 10.9788 19 13.0188 19C15.0588 19 17.0988 18.68 19.0388 18.03C19.7388 17.8 20.2788 17.27 20.5388 16.58C20.7988 15.89 20.7288 15.13 20.3388 14.49Z" fill="#64748B"/>
<path d="M15.8288 20.01C15.4088 21.17 14.2988 22 12.9988 22C12.2088 22 11.4288 21.68 10.8788 21.11C10.5588 20.81 10.3188 20.41 10.1788 20C10.3088 20.02 10.4388 20.03 10.5788 20.05C10.8088 20.08 11.0488 20.11 11.2888 20.13C11.8588 20.18 12.4388 20.21 13.0188 20.21C13.5888 20.21 14.1588 20.18 14.7188 20.13C14.9288 20.11 15.1388 20.1 15.3388 20.07C15.4988 20.05 15.6588 20.03 15.8288 20.01Z" fill="#64748B"/>
</svg>
