<svg width="51" height="13" viewBox="0 0 51 13" fill="none" xmlns="http://www.w3.org/2000/svg">
<path d="M0.147727 12.0254V0.389025H4.51136C5.4053 0.389025 6.1553 0.555692 6.76136 0.889025C7.37121 1.22236 7.83144 1.68069 8.14205 2.26403C8.45644 2.84357 8.61364 3.50266 8.61364 4.2413C8.61364 4.98751 8.45644 5.65039 8.14205 6.22994C7.82765 6.80948 7.36364 7.26592 6.75 7.59925C6.13636 7.9288 5.38068 8.09357 4.48296 8.09357H1.59091V6.36062H4.19886C4.72159 6.36062 5.14962 6.26971 5.48296 6.08789C5.81629 5.90607 6.0625 5.65607 6.22159 5.33789C6.38447 5.01971 6.46591 4.65418 6.46591 4.2413C6.46591 3.82842 6.38447 3.46478 6.22159 3.15039C6.0625 2.836 5.8144 2.59168 5.47727 2.41743C5.14394 2.2394 4.71402 2.15039 4.1875 2.15039H2.25568V12.0254H0.147727ZM10.642 12.0254H8.39205L12.4886 0.389025H15.0909L19.1932 12.0254H16.9432L13.8352 2.77539H13.7443L10.642 12.0254ZM10.7159 7.46289H16.8523V9.15607H10.7159V7.46289ZM27.9744 4.10493C27.8797 3.79812 27.7491 3.5235 27.5824 3.28107C27.4195 3.03486 27.2225 2.82463 26.9915 2.65039C26.7642 2.47615 26.5028 2.34546 26.2074 2.25834C25.9119 2.16743 25.59 2.12198 25.2415 2.12198C24.6165 2.12198 24.0597 2.27918 23.571 2.59357C23.0824 2.90796 22.6979 3.37009 22.4176 3.97993C22.1411 4.586 22.0028 5.32463 22.0028 6.19584C22.0028 7.07463 22.1411 7.81895 22.4176 8.4288C22.6941 9.03865 23.0786 9.50266 23.571 9.82084C24.0634 10.1352 24.6354 10.2924 25.2869 10.2924C25.8778 10.2924 26.3892 10.1788 26.821 9.95153C27.2566 9.72425 27.5919 9.40228 27.8267 8.98562C28.0616 8.56516 28.179 8.07274 28.179 7.50834L28.6563 7.58221H25.4972V5.93448H30.2188V7.33221C30.2188 8.32842 30.0066 9.19016 29.5824 9.91744C29.1581 10.6447 28.5748 11.2053 27.8324 11.5993C27.09 11.9894 26.2377 12.1845 25.2756 12.1845C24.2036 12.1845 23.2623 11.944 22.4517 11.4629C21.6449 10.978 21.0142 10.2905 20.5597 9.40039C20.1089 8.50645 19.8835 7.44584 19.8835 6.21857C19.8835 5.27918 20.0161 4.44016 20.2813 3.70153C20.5502 2.96289 20.9252 2.336 21.4063 1.82084C21.8873 1.3019 22.4517 0.907965 23.0994 0.639025C23.7472 0.366298 24.4517 0.229934 25.2131 0.229934C25.857 0.229934 26.4574 0.324631 27.0142 0.514025C27.571 0.699631 28.0653 0.964783 28.4972 1.30948C28.9328 1.65418 29.2907 2.06327 29.571 2.53675C29.8513 3.01024 30.035 3.53297 30.1222 4.10493H27.9744ZM32.2571 12.0254V0.389025H39.8253V2.15607H34.3651V5.31516H39.4332V7.08221H34.3651V10.2583H39.8707V12.0254H32.2571ZM48.2997 3.58789C48.2467 3.09168 48.0232 2.70531 47.6293 2.4288C47.2391 2.15228 46.7315 2.01403 46.1065 2.01403C45.6671 2.01403 45.2903 2.08031 44.9759 2.21289C44.6615 2.34546 44.4209 2.52539 44.2543 2.75266C44.0876 2.97993 44.0024 3.2394 43.9986 3.53107C43.9986 3.7735 44.0535 3.98372 44.1634 4.16175C44.277 4.33978 44.4304 4.4913 44.6236 4.6163C44.8168 4.73751 45.0308 4.83978 45.2656 4.92312C45.5005 5.00645 45.7372 5.07653 45.9759 5.13334L47.0668 5.40607C47.5062 5.50834 47.9285 5.6466 48.3338 5.82084C48.7429 5.99509 49.1084 6.21478 49.4304 6.47994C49.7562 6.74509 50.0137 7.06516 50.2031 7.44016C50.3925 7.81516 50.4872 8.25456 50.4872 8.75834C50.4872 9.44016 50.313 10.0405 49.9645 10.5595C49.616 11.0746 49.1122 11.478 48.4531 11.7697C47.7978 12.0576 47.0043 12.2015 46.0724 12.2015C45.1671 12.2015 44.3812 12.0614 43.7145 11.7811C43.0516 11.5008 42.5327 11.0917 42.1577 10.5538C41.7865 10.0159 41.5857 9.36062 41.5554 8.58789H43.6293C43.6596 8.99319 43.7846 9.33031 44.0043 9.59925C44.224 9.86819 44.5099 10.069 44.8622 10.2015C45.2183 10.3341 45.616 10.4004 46.0554 10.4004C46.5137 10.4004 46.9153 10.3322 47.2599 10.1958C47.6084 10.0557 47.8812 9.86251 48.0781 9.6163C48.2751 9.3663 48.3755 9.07463 48.3793 8.7413C48.3755 8.43827 48.2865 8.18827 48.1122 7.9913C47.938 7.79054 47.6937 7.62387 47.3793 7.4913C47.0687 7.35494 46.705 7.23372 46.2884 7.12766L44.9645 6.78675C44.0062 6.54054 43.2486 6.16744 42.6918 5.66744C42.1387 5.16365 41.8622 4.49509 41.8622 3.66175C41.8622 2.97615 42.0478 2.37577 42.419 1.86062C42.794 1.34547 43.3035 0.945844 43.9474 0.661752C44.5914 0.373874 45.3206 0.229934 46.1349 0.229934C46.9607 0.229934 47.6842 0.373874 48.3054 0.661752C48.9304 0.945844 49.4209 1.34168 49.777 1.84925C50.1331 2.35304 50.3168 2.93259 50.3281 3.58789H48.2997Z" fill="#7B8190"/>
</svg>
