<svg width="21" height="21" viewBox="0 0 21 21" fill="none" xmlns="http://www.w3.org/2000/svg">
<path d="M10.9749 5.0127C11.141 5.0127 11.3004 5.07871 11.4179 5.19621C11.5354 5.31372 11.6014 5.47309 11.6014 5.63927V9.3987H15.3609C15.527 9.3987 15.6864 9.46471 15.8039 9.58222C15.9214 9.69972 15.9874 9.85909 15.9874 10.0253C15.9874 10.1914 15.9214 10.3508 15.8039 10.4683C15.6864 10.5858 15.527 10.6518 15.3609 10.6518H11.6014V14.4113C11.6014 14.5775 11.5354 14.7368 11.4179 14.8543C11.3004 14.9718 11.141 15.0378 10.9749 15.0378C10.8087 15.0378 10.6493 14.9718 10.5318 14.8543C10.4143 14.7368 10.3483 14.5775 10.3483 14.4113V10.6518H6.58885C6.42268 10.6518 6.2633 10.5858 6.1458 10.4683C6.02829 10.3508 5.96228 10.1914 5.96228 10.0253C5.96228 9.85909 6.02829 9.69972 6.1458 9.58222C6.2633 9.46471 6.42268 9.3987 6.58885 9.3987H10.3483V5.63927C10.3483 5.47309 10.4143 5.31372 10.5318 5.19621C10.6493 5.07871 10.8087 5.0127 10.9749 5.0127V5.0127Z" fill="#7B8190"/>
</svg>
