<svg width="21" height="21" viewBox="0 0 21 21" fill="none" xmlns="http://www.w3.org/2000/svg">
<path d="M18.0145 11.1811C17.6728 11.1811 17.3895 10.8978 17.3895 10.5561V7.78949C17.3895 6.75616 16.5478 5.91449 15.5145 5.91449H3.98114C3.63947 5.91449 3.35614 5.63116 3.35614 5.28949C3.35614 4.94782 3.63947 4.66449 3.98114 4.66449H15.5145C17.2395 4.66449 18.6395 6.06449 18.6395 7.78949V10.5561C18.6395 10.9061 18.3562 11.1811 18.0145 11.1811Z" fill="#4D515A"/>
<path d="M6.61448 8.55612C6.45614 8.55612 6.29781 8.49776 6.17281 8.37276L3.53947 5.73945C3.42281 5.62278 3.35614 5.46442 3.35614 5.29776C3.35614 5.13109 3.42281 4.97278 3.53947 4.85612L6.17281 2.22275C6.41448 1.98109 6.81448 1.98109 7.05614 2.22275C7.29781 2.46442 7.29781 2.86447 7.05614 3.10614L4.8645 5.29776L7.05614 7.48943C7.29781 7.73109 7.29781 8.13109 7.05614 8.37276C6.93114 8.48943 6.77281 8.55612 6.61448 8.55612Z" fill="#4D515A"/>
<path d="M18.0145 17.3228H6.48114C4.75614 17.3228 3.35614 15.9228 3.35614 14.1978V11.4312C3.35614 11.0895 3.63947 10.8062 3.98114 10.8062C4.32281 10.8062 4.60614 11.0895 4.60614 11.4312V14.1978C4.60614 15.2312 5.44781 16.0728 6.48114 16.0728H18.0145C18.3562 16.0728 18.6395 16.3562 18.6395 16.6978C18.6395 17.0395 18.3562 17.3228 18.0145 17.3228Z" fill="#4D515A"/>
<path d="M15.3812 19.9561C15.2229 19.9561 15.0646 19.8978 14.9396 19.7728C14.6979 19.5311 14.6979 19.1311 14.9396 18.8894L17.1312 16.6978L14.9396 14.5061C14.6979 14.2644 14.6979 13.8644 14.9396 13.6228C15.1812 13.3811 15.5812 13.3811 15.8229 13.6228L18.4562 16.2561C18.5729 16.3728 18.6396 16.5311 18.6396 16.6978C18.6396 16.8644 18.5729 17.0228 18.4562 17.1394L15.8229 19.7728C15.7062 19.8978 15.5479 19.9561 15.3812 19.9561Z" fill="#4D515A"/>
</svg>
