<svg width="21" height="20" viewBox="0 0 21 20" fill="none" xmlns="http://www.w3.org/2000/svg">
<path d="M10.9977 18.9573C6.6644 18.9573 3.14774 15.4323 3.14774 11.1073C3.14774 9.54893 3.60607 8.0406 4.47274 6.7406C4.6644 6.45727 5.05607 6.37393 5.3394 6.5656C5.62274 6.75727 5.70607 7.14893 5.5144 7.43227C4.7894 8.5156 4.40607 9.7906 4.40607 11.0989C4.40607 14.7406 7.3644 17.6989 11.0061 17.6989C14.6477 17.6989 17.6061 14.7406 17.6061 11.0989C17.6061 7.45727 14.6394 4.49893 10.9977 4.49893C10.2311 4.49893 9.48107 4.60727 8.77274 4.82393C8.4394 4.92393 8.0894 4.7406 7.9894 4.40727C7.8894 4.07393 8.07274 3.72393 8.40607 3.62393C9.2394 3.37393 10.1061 3.2406 10.9977 3.2406C15.3311 3.2406 18.8477 6.7656 18.8477 11.0906C18.8477 15.4156 15.3311 18.9573 10.9977 18.9573Z" fill="#4D515A"/>
<path d="M7.55608 5.05728C7.41441 5.05728 7.26441 5.00728 7.14775 4.90728C6.88108 4.67395 6.85608 4.28228 7.08108 4.02395L9.48941 1.25728C9.71441 0.998951 10.1144 0.965618 10.3727 1.19895C10.6311 1.42395 10.6561 1.82395 10.4311 2.08228L8.02275 4.84062C7.89775 4.98228 7.72275 5.05728 7.55608 5.05728Z" fill="#4D515A"/>
<path d="M10.3644 7.10732C10.2394 7.10732 10.1061 7.06565 9.99774 6.99065L7.18108 4.93232C6.90608 4.73232 6.84774 4.34065 7.04774 4.06565C7.24774 3.78232 7.63941 3.72399 7.92274 3.92399L10.7311 5.97399C11.0061 6.17399 11.0727 6.56565 10.8644 6.84899C10.7477 7.02399 10.5561 7.10732 10.3644 7.10732Z" fill="#4D515A"/>
</svg>
