<svg width="25" height="25" viewBox="0 0 25 25" fill="none" xmlns="http://www.w3.org/2000/svg">
<path d="M12.0302 15.7903C9.95498 15.7903 8.27075 14.1061 8.27075 12.0309C8.27075 9.95571 9.95498 8.27148 12.0302 8.27148C14.1054 8.27148 15.7896 9.95571 15.7896 12.0309C15.7896 14.1061 14.1054 15.7903 12.0302 15.7903ZM12.0302 9.77526C10.7871 9.77526 9.77452 10.7878 9.77452 12.0309C9.77452 13.274 10.7871 14.2866 12.0302 14.2866C13.2733 14.2866 14.2858 13.274 14.2858 12.0309C14.2858 10.7878 13.2733 9.77526 12.0302 9.77526Z" fill="#3B424A"/>
<path d="M15.2483 22.2469C15.0378 22.2469 14.8272 22.2168 14.6167 22.1667C13.9951 21.9963 13.4738 21.6053 13.143 21.0539L13.0227 20.8534C12.4312 19.8308 11.6192 19.8308 11.0277 20.8534L10.9174 21.0439C10.5866 21.6053 10.0653 22.0063 9.44372 22.1667C8.81214 22.3371 8.1605 22.2469 7.60912 21.9161L5.88479 20.9236C5.27326 20.5727 4.83215 20.0013 4.64168 19.3095C4.46122 18.6178 4.55145 17.906 4.90233 17.2945C5.19306 16.7832 5.27326 16.322 5.10283 16.0313C4.93241 15.7406 4.50132 15.5702 3.90984 15.5702C2.44617 15.5702 1.25317 14.3772 1.25317 12.9135V11.1491C1.25317 9.6854 2.44617 8.4924 3.90984 8.4924C4.50132 8.4924 4.93241 8.32198 5.10283 8.03125C5.27326 7.74052 5.20308 7.27936 4.90233 6.76808C4.55145 6.15654 4.46122 5.43473 4.64168 4.75302C4.82213 4.06129 5.26324 3.48985 5.88479 3.13897L7.61915 2.14648C8.75199 1.4748 10.2457 1.86578 10.9274 3.01867L11.0477 3.21917C11.6392 4.24174 12.4513 4.24174 13.0428 3.21917L13.153 3.0287C13.8347 1.86578 15.3285 1.4748 16.4714 2.15651L18.1957 3.149C18.8072 3.49988 19.2483 4.07131 19.4388 4.76305C19.6193 5.45478 19.529 6.16657 19.1781 6.7781C18.8874 7.28939 18.8072 7.75054 18.9776 8.04127C19.1481 8.332 19.5792 8.50243 20.1706 8.50243C21.6343 8.50243 22.8273 9.69542 22.8273 11.1591V12.9235C22.8273 14.3872 21.6343 15.5802 20.1706 15.5802C19.5792 15.5802 19.1481 15.7506 18.9776 16.0413C18.8072 16.3321 18.8774 16.7932 19.1781 17.3045C19.529 17.916 19.6293 18.6379 19.4388 19.3196C19.2583 20.0113 18.8172 20.5827 18.1957 20.9336L16.4613 21.9261C16.0804 22.1366 15.6693 22.2469 15.2483 22.2469ZM12.0302 18.5376C12.9225 18.5376 13.7545 19.099 14.326 20.0915L14.4362 20.282C14.5566 20.4925 14.7571 20.6429 14.9977 20.703C15.2383 20.7632 15.4789 20.7331 15.6794 20.6128L17.4137 19.6103C17.6744 19.4599 17.8749 19.2093 17.9551 18.9085C18.0353 18.6078 17.9952 18.297 17.8448 18.0363C17.2734 17.0539 17.2032 16.0413 17.6443 15.2694C18.0854 14.4975 18.9977 14.0564 20.1406 14.0564C20.7822 14.0564 21.2935 13.5451 21.2935 12.9035V11.139C21.2935 10.5075 20.7822 9.98615 20.1406 9.98615C18.9977 9.98615 18.0854 9.54504 17.6443 8.77311C17.2032 8.00117 17.2734 6.98863 17.8448 6.00617C17.9952 5.74551 18.0353 5.43473 17.9551 5.13398C17.8749 4.83322 17.6844 4.59262 17.4237 4.43222L15.6894 3.43973C15.2583 3.17907 14.6869 3.32945 14.4262 3.77056L14.3159 3.96103C13.7445 4.95352 12.9124 5.51493 12.0202 5.51493C11.1279 5.51493 10.2959 4.95352 9.72443 3.96103L9.61415 3.76053C9.36352 3.33948 8.80211 3.1891 8.37103 3.43973L6.63668 4.44224C6.37603 4.59262 6.17552 4.84325 6.09532 5.144C6.01512 5.44476 6.05522 5.75554 6.2056 6.01619C6.77703 6.99866 6.84721 8.0112 6.4061 8.78313C5.965 9.55507 5.05271 9.99618 3.90984 9.99618C3.26823 9.99618 2.75695 10.5075 2.75695 11.1491V12.9135C2.75695 13.5451 3.26823 14.0664 3.90984 14.0664C5.05271 14.0664 5.965 14.5075 6.4061 15.2794C6.84721 16.0514 6.77703 17.0639 6.2056 18.0464C6.05522 18.307 6.01512 18.6178 6.09532 18.9186C6.17552 19.2193 6.366 19.4599 6.62666 19.6203L8.36101 20.6128C8.57154 20.7431 8.82216 20.7732 9.05274 20.7131C9.29335 20.6529 9.49385 20.4925 9.62418 20.282L9.73445 20.0915C10.3059 19.109 11.138 18.5376 12.0302 18.5376Z" fill="#3B424A"/>
</svg>
