<svg width="21" height="20" viewBox="0 0 21 20" fill="none" xmlns="http://www.w3.org/2000/svg">
<path d="M8.79771 10.0002C8.79771 8.80973 9.77332 7.85735 10.9928 7.85735C12.2123 7.85735 13.1879 8.80973 13.188 10.0002C13.188 11.1907 12.2123 12.1431 10.9928 12.1431C9.77332 12.1431 8.79771 11.1907 8.79771 10.0002ZM3.18795 12.1431C4.40746 12.1431 5.38307 11.1907 5.38307 10.0002C5.38307 8.80973 4.40746 7.85735 3.18795 7.85735C1.96844 7.85735 0.992828 8.80973 0.992828 10.0002C0.992828 11.1907 1.96844 12.1431 3.18795 12.1431ZM18.7977 12.1431C20.0172 12.1431 20.9928 11.1907 20.9928 10.0002C20.9928 8.80973 20.0172 7.85735 18.7977 7.85735C17.5782 7.85735 16.6026 8.80973 16.6026 10.0002C16.6026 11.1907 17.5782 12.1431 18.7977 12.1431Z" fill="#4D515A"/>
</svg>
