<svg width="25" height="25" viewBox="0 0 25 25" fill="none" xmlns="http://www.w3.org/2000/svg">
<path d="M8.02014 5.76522C7.6091 5.76522 7.26825 5.42437 7.26825 5.01334V2.00579C7.26825 1.59476 7.6091 1.25391 8.02014 1.25391C8.43117 1.25391 8.77202 1.59476 8.77202 2.00579V5.01334C8.77202 5.42437 8.43117 5.76522 8.02014 5.76522Z" fill="#3B424A"/>
<path d="M16.0402 5.76522C15.6292 5.76522 15.2883 5.42437 15.2883 5.01334V2.00579C15.2883 1.59476 15.6292 1.25391 16.0402 1.25391C16.4512 1.25391 16.7921 1.59476 16.7921 2.00579V5.01334C16.7921 5.42437 16.4512 5.76522 16.0402 5.76522Z" fill="#3B424A"/>
<path d="M15.0378 11.7806H7.01763C6.6066 11.7806 6.26575 11.4398 6.26575 11.0287C6.26575 10.6177 6.6066 10.2769 7.01763 10.2769H15.0378C15.4488 10.2769 15.7896 10.6177 15.7896 11.0287C15.7896 11.4398 15.4488 11.7806 15.0378 11.7806Z" fill="#3B424A"/>
<path d="M12.0302 15.7904H7.01763C6.6066 15.7904 6.26575 15.4495 6.26575 15.0385C6.26575 14.6275 6.6066 14.2866 7.01763 14.2866H12.0302C12.4412 14.2866 12.7821 14.6275 12.7821 15.0385C12.7821 15.4495 12.4412 15.7904 12.0302 15.7904Z" fill="#3B424A"/>
<path d="M15.0377 22.8081H9.02265C3.38852 22.8081 2.25568 20.1515 2.25568 15.8607V9.67517C2.25568 4.92325 3.8597 2.98839 7.98004 2.75781H16.0403C20.2007 2.98839 21.8047 4.92325 21.8047 9.67517V16.0411C21.8047 16.4522 21.4639 16.793 21.0528 16.793C20.6418 16.793 20.3009 16.4522 20.3009 16.0411V9.67517C20.3009 5.3042 18.8473 4.42199 16.0002 4.26159H8.02014C5.2131 4.42199 3.75945 5.3042 3.75945 9.67517V15.8607C3.75945 19.7003 4.49129 21.3043 9.02265 21.3043H15.0377C15.4488 21.3043 15.7896 21.6452 15.7896 22.0562C15.7896 22.4673 15.4488 22.8081 15.0377 22.8081Z" fill="#3B424A"/>
<path d="M15.0377 22.8084C14.9375 22.8084 14.8472 22.7884 14.747 22.7483C14.4663 22.628 14.2858 22.3573 14.2858 22.0565V19.049C14.2858 16.6229 15.6192 15.2896 18.0453 15.2896H21.0528C21.3536 15.2896 21.6343 15.47 21.7445 15.7507C21.8648 16.0314 21.7947 16.3522 21.5841 16.5728L15.569 22.5879C15.4287 22.7282 15.2382 22.8084 15.0377 22.8084ZM18.0453 16.7933C16.4613 16.7933 15.7896 17.465 15.7896 19.049V20.242L19.2383 16.7933H18.0453Z" fill="#3B424A"/>
</svg>
