<svg width="25" height="24" viewBox="0 0 25 24" fill="none" xmlns="http://www.w3.org/2000/svg">
<path d="M6.04837 8.73314C5.20347 7.6066 6.00728 5.99896 7.41546 5.99896H18.58C19.9882 5.99896 20.792 7.6066 19.9471 8.73314V8.73314C19.3309 9.5548 18.9977 10.5542 18.9977 11.5812V17.999C18.9977 20.2081 17.2069 21.999 14.9977 21.999H10.9977C8.7886 21.999 6.99774 20.2081 6.99774 17.999V11.5812C6.99774 10.5542 6.66462 9.5548 6.04837 8.73314V8.73314Z" stroke="#E11D48" stroke-width="1.5"/>
<path d="M14.9977 16.999L14.9977 10.999" stroke="#E11D48" stroke-width="1.5" stroke-linecap="round" stroke-linejoin="round"/>
<path d="M10.9977 16.999L10.9977 10.999" stroke="#E11D48" stroke-width="1.5" stroke-linecap="round" stroke-linejoin="round"/>
<path d="M16.9977 5.99896L16.4536 4.36651C16.1814 3.54982 15.4171 2.99896 14.5562 2.99896H11.4393C10.5784 2.99896 9.81412 3.54982 9.54189 4.36651L8.99774 5.99896" stroke="#E11D48" stroke-width="1.5" stroke-linecap="round"/>
</svg>
